<?xml version="1.0" encoding="utf-8"?>
<!-- Generator: Adobe Illustrator 19.2.1, SVG Export Plug-In . SVG Version: 6.00 Build 0)  -->
<svg version="1.1" id="Layer_1" xmlns="http://www.w3.org/2000/svg" xmlns:xlink="http://www.w3.org/1999/xlink" x="0px" y="0px"
	 viewBox="0 0 595.3 841.9" style="enable-background:new 0 0 595.3 841.9;" xml:space="preserve">
<style type="text/css">
	.st0{fill:none;}
	.st1{fill:#FFFFFF;}
</style>
<g>
	<path class="st0" d="M640.2,718.8c-249.7,0-499.3,0-749,0c0-226,0-452,0-678c249.7,0,499.3,0,749,0
		C640.2,266.8,640.2,492.8,640.2,718.8z M13,234.5c-8.3,0-15.2,0.1-22.1,0c-21.1-0.5-36.1,8.7-46.1,27.3
		c-11,20.5-22.9,40.4-33.9,60.9c-6.1,11.5-13.4,22.2-16.3,35.5c-5.8,26.9,0,51.4,12.7,74.7c10.6,19.5,22.3,38.4,33.3,57.6
		c5,8.7,9.2,17.9,17.5,24c5,3.7,10.4,8,16.2,9.2c10,2,20.4,1.7,30.7,2.4c2.1,0.1,4.2,0.4,7,0.7c-1.2,2.5-2,4.2-2.9,5.9
		c-4.1,8-8.7,15.7-12.1,23.9c-6.2,15-1.9,28.9,6.1,42.1c11.6,19.4,22.9,39,34.8,58.1c6.6,10.6,13.8,21,21.6,30.8
		c6.5,8.1,15.6,13,24.8,17.9c14,7.5,28.9,11.3,44.2,11.7c29,0.8,58,0.6,87,0.1c17-0.3,29.8-8.9,38.7-23.3c3.9-6.3,8-12.5,12.4-19.4
		c1.5,2.4,2.2,3.8,3.2,5.1c5.8,8.2,9.6,17.9,17.8,24.5c8.4,6.8,17,13.4,28.2,13.5c25.7,0.2,51.3-0.4,77-0.1c12.5,0.1,24.8-1.2,37-4
		c12.7-2.8,24.2-8.7,34.3-16.4c10.1-7.8,18.7-17.5,25.4-28.6c13.9-23.2,27.9-46.3,41.5-69.7c3.6-6.2,6.6-13.2,8-20.1
		c2.3-11.8-0.8-23.1-6.6-33.5c-3.4-6-6.9-11.9-10.8-18.6c2.9-0.3,4.7-0.7,6.4-0.7c6-0.1,12-0.5,18,0.1c12.8,1.2,22.2-5.1,31.2-13
		c7.8-6.8,11.6-16.1,16.5-24.7c11.8-20.8,23.5-41.7,35.7-62.4c7.4-12.5,10.8-25.7,9.9-40.2c-0.5-7.6,0.2-15.3-0.2-23
		c-0.3-4.9-0.7-10.1-2.5-14.6c-3.2-7.8-7.4-15.2-11.4-22.5c-3.4-6.2-7.4-12.1-10.9-18.3c-9.5-16.7-18.3-33.8-28.6-50
		c-6.8-10.8-16.1-19.7-29.9-21.1c-9.4-0.9-18.9-1.3-28.3-1.8c-1.9-0.1-3.8-0.2-6.5-0.4c1.5-2.8,2.5-4.9,3.7-6.8
		c3.3-5.4,7-10.5,9.9-16.1c5.3-10.4,7.1-21.8,3.3-32.8c-3.5-10.1-8.8-19.5-14-28.9c-7.7-13.9-16-27.5-23.8-41.4
		c-6.5-11.6-13.6-22.6-22.8-32.4c-13.7-14.6-29.9-24.8-49.3-29.1c-10.1-2.3-20.7-3.2-31-3.4c-26.8-0.5-53.7-0.6-80.5,0
		c-13.9,0.3-25.7,6.2-33.6,18.4c-5.2,8.1-10.6,16.1-15.9,24.2c-1.2-0.7-2.4-1.1-2.8-1.8c-3.2-5.4-6.2-10.9-9.4-16.3
		C245.2,51.2,230.5,43,211.6,43c-27,0-53.9,0.4-80.9,0.8c-21.6,0.3-42,4.9-59.4,18.2c-7.3,5.6-15,11.7-19.8,19.3
		C34.4,108,18.6,135.5,2.1,162.7C-8.4,180-8.1,197.1,2.3,214.4C5.9,220.3,8.9,226.8,13,234.5z"/>
	<path d="M13,234.5c-4.1-7.7-7.1-14.2-10.7-20.3C-8.1,197-8.4,179.9,2.1,162.5c16.5-27.1,32.3-54.6,49.4-81.4
		c4.8-7.6,12.5-13.7,19.8-19.3c17.4-13.3,37.8-17.9,59.4-18.2c27-0.3,53.9-0.8,80.9-0.8c18.9,0,33.5,8.2,43.2,24.7
		c3.2,5.4,6.2,10.9,9.4,16.3c0.4,0.7,1.6,1,2.8,1.8c5.4-8.2,10.7-16.2,15.9-24.2c7.9-12.2,19.7-18.1,33.6-18.4
		c26.8-0.6,53.7-0.5,80.5,0c10.4,0.2,20.9,1.1,31,3.4c19.4,4.3,35.6,14.6,49.3,29.1c9.2,9.8,16.3,20.8,22.8,32.4
		c7.8,13.9,16.1,27.4,23.8,41.4c5.2,9.4,10.5,18.9,14,28.9c3.8,11,2,22.4-3.3,32.8c-2.9,5.6-6.6,10.7-9.9,16.1
		c-1.2,1.9-2.2,4-3.7,6.8c2.7,0.2,4.6,0.2,6.5,0.4c9.4,0.6,18.9,0.9,28.3,1.8c13.8,1.4,23.1,10.4,29.9,21.1
		c10.3,16.2,19,33.3,28.6,50c3.5,6.2,7.5,12.1,10.9,18.3c4.1,7.4,8.3,14.8,11.4,22.5c1.8,4.5,2.3,9.7,2.5,14.6
		c0.4,7.6-0.3,15.3,0.2,23c0.9,14.5-2.4,27.7-9.9,40.2c-12.2,20.6-23.9,41.5-35.7,62.4c-4.9,8.6-8.7,17.9-16.5,24.7
		c-9,7.8-18.4,14.1-31.2,13c-6-0.5-12-0.1-18-0.1c-1.8,0-3.5,0.4-6.4,0.7c3.9,6.7,7.4,12.6,10.8,18.6c5.8,10.5,8.8,21.8,6.6,33.5
		c-1.3,7-4.4,13.9-8,20.1c-13.5,23.4-27.6,46.5-41.5,69.7c-6.7,11.1-15.2,20.9-25.4,28.6c-10.1,7.7-21.6,13.5-34.3,16.4
		c-12.2,2.7-24.4,4.1-37,4c-25.7-0.2-51.3,0.4-77,0.1c-11.2-0.1-19.8-6.7-28.2-13.5c-8.2-6.6-12-16.3-17.8-24.5
		c-0.9-1.3-1.7-2.7-3.2-5.1c-4.5,7-8.5,13.1-12.4,19.4c-8.9,14.4-21.7,23-38.7,23.3c-29,0.5-58,0.7-87-0.1
		c-15.4-0.4-30.3-4.2-44.2-11.7c-9.2-5-18.3-9.8-24.8-17.9c-7.8-9.8-15-20.2-21.6-30.8C26,637.4,14.7,617.8,3.1,598.5
		c-7.9-13.2-12.3-27.1-6.1-42.1c3.4-8.2,8-16,12.1-23.9c0.9-1.7,1.7-3.5,2.9-5.9c-2.8-0.3-4.9-0.6-7-0.7
		c-10.2-0.7-20.7-0.4-30.7-2.4c-5.8-1.2-11.2-5.5-16.2-9.2c-8.2-6.1-12.5-15.3-17.5-24c-11-19.2-22.7-38.1-33.3-57.6
		c-12.7-23.3-18.5-47.8-12.7-74.7c2.9-13.3,10.2-24.1,16.3-35.5c10.9-20.5,22.9-40.5,33.9-60.9c10-18.6,25-27.8,46.1-27.3
		C-2.2,234.6,4.7,234.5,13,234.5z M198.6,343.2c-1.2-0.8-2.1-1.5-3.1-2.1c-54.4-31.3-108.8-62.6-163.3-93.8c-2-1.2-4.7-1.7-7.1-1.7
		c-10.5-0.2-21,0.3-31.5-0.2c-18.1-0.8-30.4,8.1-38.9,23c-12.6,21.9-25,43.9-37.2,66c-3.9,7-7.5,14.4-9.9,22
		c-2.3,7.3-2.7,15.1-4.1,23.3c3.1,0,4.9,0,6.7,0c87,0,174,0,261,0c0.8,0,1.8,0.2,2.5-0.1c1.3-0.5,2.9-1,3.6-2
		C184.5,366.3,191.5,354.8,198.6,343.2z M630.2,380c-0.3-11.6-0.9-22.5-5.9-31.9c-14.6-27.2-29.8-54.1-45.3-80.8
		c-8-13.7-19.9-22-36.8-21.4c-10.8,0.4-21.7,0-32.5,0.2c-2.5,0-5.3,0.7-7.5,1.9c-50.2,28.7-100.3,57.5-150.3,86.2
		c-5.3,3-10.5,6.1-15.9,9.3c6.7,11,13.3,21.3,19.4,31.9c2,3.5,4.3,4.7,8.3,4.7C450.4,380,537,380,623.6,380
		C625.6,380,627.5,380,630.2,380z M450.3,693.9c9.6-5.4,23.3-18.4,28.8-27.6c14.6-24.4,29.4-48.6,43.4-73.3
		c7.6-13.4,8.9-27.6,0.1-41.6c-5.8-9.3-10.9-19-16.6-28.4c-1.4-2.3-3.4-4.6-5.7-5.9c-31.1-18.1-62.2-36-93.3-54
		c-17.3-10-34.5-20.1-51.7-30.1c-6.8-3.9-13.7-7.6-20.7-11.5c-6.6,12.1-12.9,23.6-19,35.2c-0.6,1.2-0.1,3.5,0.6,4.9
		c5.2,9.2,10.6,18.3,15.9,27.5c13.5,23.4,26.8,46.8,40.3,70.1c10.2,17.6,20.5,35.1,30.7,52.7C418.8,639.1,434.4,666.3,450.3,693.9z
		 M200,422.1c-5.8,3.4-10.9,6.5-16,9.5c-50,29-100.1,57.9-150,86.9c-1.9,1.1-3.6,2.9-4.8,4.8c-5.7,9.5-10.9,19.4-16.9,28.8
		c-8.9,14.1-7.6,28.3,0.2,41.9c13,22.9,26.6,45.3,39.9,68c7.8,13.3,18.3,24.2,31.4,32.8c5.8-9.7,11.4-19.1,16.9-28.5
		c4.4-7.6,8.6-15.5,13-23.1c8.9-15.3,18.1-30.6,27-45.9c11.1-19,21.9-38.2,32.9-57.2c15-26,30.2-51.9,45.2-77.9c0.6-1.1,1-3,0.4-4
		C213.1,446.4,206.7,434.6,200,422.1z M261.7,301.8c0.1-1.6,0.3-2.6,0.3-3.5c0-64.6,0-129.3-0.1-193.9c0-2-0.8-4.2-2-5.9
		c-6-9-12.3-17.8-18.2-26.8c-7.9-12-19.4-17.8-33.3-17.7c-30.1,0.2-60.1,1.5-90.2,1.7c-11.2,0.1-20.4,4.6-30.1,9.2
		c0.9,1.7,1.5,3.1,2.3,4.4c22.2,38.2,44.4,76.4,66.6,114.5c22.1,38.1,44.2,76.1,66.4,114.1c0.9,1.6,2.9,3.7,4.4,3.7
		C238.9,301.9,250,301.8,261.7,301.8z M447.7,64.8c-5-2.1-9.1-4.2-13.4-5.7c-13.3-4.7-27.3-4.6-41.1-4.9c-22.3-0.6-44.6-0.6-67-0.2
		c-12.8,0.2-23.6,5.4-31.1,16.1c-6.5,9.2-12.9,18.6-19.1,28c-1.2,1.8-2,4.2-2,6.4c-0.3,24.8-0.5,49.6-0.6,74.4c-0.1,39,0,78,0,116.9
		c0,1.9,0,3.9,0,6c10.9,0,21.1-0.3,31.2,0.1c4.3,0.2,6.4-1.4,8.5-5c35.7-61.7,71.5-123.3,107.3-184.9
		C429.3,96.5,438.3,81,447.7,64.8z M266.9,447.8c11.8,0,23.7,0.2,35.5-0.1c2.1-0.1,4.9-1.5,6-3.1c11.9-19.8,23.4-39.7,35.2-59.6
		c1.4-2.4,1.6-4.2,0.1-6.7c-11.8-20.2-23.4-40.5-35.4-60.7c-1-1.7-3.7-3.3-5.7-3.3c-23.1-0.2-46.3-0.1-69.4-0.2
		c-3.3,0-5.1,1.1-6.7,3.9c-11.4,20-22.9,40-34.6,59.9c-1.7,2.9-1.4,4.8,0.2,7.6c11.5,19.6,22.9,39.2,34.1,59
		c1.4,2.5,2.9,3.5,5.8,3.5C243.5,447.7,255.2,447.8,266.9,447.8z"/>
	<path class="st1" d="M198.6,343.2c-7.2,11.6-14.2,23.1-21.3,34.5c-0.6,1-2.3,1.5-3.6,2c-0.7,0.3-1.6,0.1-2.5,0.1c-87,0-174,0-261,0
		c-1.8,0-3.6,0-6.7,0c1.4-8.2,1.8-16,4.1-23.3c2.4-7.6,6-15,9.9-22c12.2-22.1,24.6-44.1,37.2-66c8.6-14.9,20.8-23.8,38.9-23
		c10.5,0.5,21,0,31.5,0.2c2.4,0,5,0.6,7.1,1.7c54.5,31.2,108.9,62.5,163.3,93.8C196.5,341.7,197.4,342.4,198.6,343.2z"/>
	<path class="st1" d="M630.2,380c-2.7,0-4.6,0-6.6,0c-86.6,0-173.2,0-259.9,0.1c-4,0-6.3-1.2-8.3-4.7c-6.2-10.6-12.7-21-19.4-31.9
		c5.4-3.1,10.6-6.3,15.9-9.3c50.1-28.8,100.2-57.6,150.3-86.2c2.2-1.2,5-1.9,7.5-1.9c10.8-0.2,21.7,0.2,32.5-0.2
		c16.9-0.6,28.8,7.7,36.8,21.4c15.6,26.7,30.7,53.6,45.3,80.8C629.4,357.5,629.9,368.5,630.2,380z"/>
	<path class="st1" d="M450.3,693.9c-15.8-27.5-31.4-54.8-47.1-82c-10.2-17.6-20.5-35.1-30.7-52.7c-13.5-23.3-26.9-46.7-40.3-70.1
		c-5.3-9.2-10.7-18.3-15.9-27.5c-0.8-1.4-1.3-3.7-0.6-4.9c6.1-11.6,12.4-23.1,19-35.2c7,3.9,13.9,7.6,20.7,11.5
		c17.3,10,34.5,20.1,51.7,30.1c31.1,18,62.3,35.9,93.3,54c2.3,1.3,4.3,3.6,5.7,5.9c5.7,9.4,10.8,19.1,16.6,28.4
		c8.8,14,7.5,28.2-0.1,41.6c-14,24.7-28.8,48.9-43.4,73.3C473.6,675.4,459.9,688.5,450.3,693.9z"/>
	<path class="st1" d="M200,422.1c6.8,12.5,13.2,24.3,19.4,36.1c0.5,1,0.2,2.9-0.4,4c-15,26-30.2,51.9-45.2,77.9
		c-11,19-21.9,38.2-32.9,57.2c-8.9,15.4-18.1,30.6-27,45.9c-4.5,7.6-8.6,15.5-13,23.1c-5.5,9.4-11.1,18.8-16.9,28.5
		c-13.2-8.7-23.6-19.5-31.4-32.8c-13.3-22.7-27-45.1-39.9-68c-7.8-13.7-9.1-27.8-0.2-41.9c5.9-9.4,11.1-19.3,16.9-28.8
		c1.1-1.9,2.9-3.7,4.8-4.8c50-29,100-58,150-86.9C189.1,428.6,194.1,425.5,200,422.1z"/>
	<path class="st1" d="M261.7,301.8c-11.7,0-22.8,0.1-34-0.2c-1.5,0-3.5-2.1-4.4-3.7c-22.2-38-44.3-76.1-66.4-114.1
		c-22.2-38.2-44.4-76.4-66.6-114.5c-0.7-1.3-1.4-2.6-2.3-4.4c9.7-4.6,19-9.1,30.1-9.2c30.1-0.2,60.1-1.5,90.2-1.7
		c13.9-0.1,25.4,5.7,33.3,17.7c6,9,12.3,17.8,18.2,26.8c1.1,1.7,2,3.9,2,5.9c0.1,64.6,0.1,129.3,0.1,193.9
		C261.9,299.2,261.8,300.2,261.7,301.8z"/>
	<path class="st1" d="M447.7,64.8c-9.4,16.2-18.4,31.7-27.4,47.2c-35.8,61.6-71.6,123.2-107.3,184.9c-2.1,3.6-4.2,5.2-8.5,5
		c-10.1-0.4-20.3-0.1-31.2-0.1c0-2.2,0-4.1,0-6c0-39-0.1-78,0-116.9c0.1-24.8,0.3-49.6,0.6-74.4c0-2.2,0.8-4.6,2-6.4
		c6.2-9.4,12.5-18.8,19.1-28c7.6-10.7,18.4-15.9,31.1-16.1c22.3-0.3,44.6-0.3,67,0.2c13.8,0.4,27.8,0.3,41.1,4.9
		C438.6,60.6,442.7,62.7,447.7,64.8z"/>
	<path d="M266.7,424c-25.8,1.3-43.7-21.4-44-42.6c-0.4-26.6,22.2-46.6,47.9-44.6c19.1,1.5,41.1,19.2,39.9,46.2
		C309.6,402.7,291.2,425.1,266.7,424z M266.9,412.7c17.2,0,32.1-14.9,32.2-32c0.1-17.3-15-32.6-32.2-32.7s-32.4,15.1-32.5,32.4
		C234.3,397.9,249.2,412.7,266.9,412.7z"/>
	<path class="st1" d="M266.9,412.7c-17.7,0-32.6-14.8-32.5-32.3c0.1-17.3,15.3-32.5,32.5-32.4s32.3,15.4,32.2,32.7
		C299,397.9,284.1,412.7,266.9,412.7z"/>
	<path class="st1" d="M266.9,447.8c-11.7,0-23.3-0.1-35,0.1c-2.9,0-4.4-1-5.8-3.5c-11.3-19.7-22.6-39.4-34.1-59
		c-1.6-2.8-1.9-4.7-0.2-7.6c11.7-19.9,23.2-39.9,34.6-59.9c1.6-2.8,3.4-4,6.7-3.9c23.1,0.1,46.3,0,69.4,0.2c2,0,4.7,1.7,5.7,3.3
		c11.9,20.1,23.5,40.5,35.4,60.7c1.5,2.5,1.4,4.3-0.1,6.7c-11.8,19.9-23.3,39.8-35.2,59.6c-1,1.7-3.9,3.1-6,3.1
		C290.5,447.9,278.7,447.8,266.9,447.8z M266.7,424c24.6,1.2,42.9-21.3,43.8-41c1.2-26.9-20.8-44.7-39.9-46.2
		c-25.7-2-48.3,18-47.9,44.6C223,402.6,240.9,425.3,266.7,424z"/>
</g>
</svg>
